ply
format ascii 1.0
comment Created in Blender version 4.5.2 LTS
element vertex 64
property float x
property float y
property float z
element face 34
property list uchar uint vertex_indices
end_header
-0.65392995 -0.20178384 -0.18446691
-0.65392995 -0.20178384 -0.08446692
-0.59540284 -0.20754826 -0.18446691
-0.59540284 -0.20754826 -0.08446692
-0.5391249 -0.22461998 -0.18446691
-0.5391249 -0.22461998 -0.08446692
-0.48725885 -0.25234294 -0.18446691
-0.48725885 -0.25234294 -0.08446692
-0.4417979 -0.2896518 -0.18446691
-0.4417979 -0.2896518 -0.08446692
-0.40448904 -0.33511275 -0.18446691
-0.40448904 -0.33511275 -0.08446692
-0.3767661 -0.3869788 -0.18446691
-0.3767661 -0.3869788 -0.08446692
-0.35969436 -0.44325674 -0.18446691
-0.35969436 -0.44325674 -0.08446692
-0.35392994 -0.50178385 -0.18446691
-0.35392994 -0.50178385 -0.08446692
-0.35969436 -0.56031096 -0.18446691
-0.35969436 -0.56031096 -0.08446692
-0.3767661 -0.6165889 -0.18446691
-0.3767661 -0.6165889 -0.08446692
-0.40448904 -0.66845495 -0.18446691
-0.40448904 -0.66845495 -0.08446692
-0.4417979 -0.7139159 -0.18446691
-0.4417979 -0.7139159 -0.08446692
-0.48725885 -0.75122476 -0.18446691
-0.48725885 -0.75122476 -0.08446692
-0.5391249 -0.7789477 -0.18446691
-0.5391249 -0.7789477 -0.08446692
-0.59540284 -0.79601943 -0.18446691
-0.59540284 -0.79601943 -0.08446692
-0.65392995 -0.80178386 -0.18446691
-0.65392995 -0.80178386 -0.08446692
-0.71245706 -0.79601943 -0.18446691
-0.71245706 -0.79601943 -0.08446692
-0.768735 -0.7789477 -0.18446691
-0.768735 -0.7789477 -0.08446692
-0.82060105 -0.75122476 -0.18446691
-0.82060105 -0.75122476 -0.08446692
-0.866062 -0.7139159 -0.18446691
-0.866062 -0.7139159 -0.08446692
-0.90337086 -0.66845495 -0.18446691
-0.90337086 -0.66845495 -0.08446692
-0.9310938 -0.6165889 -0.18446691
-0.9310938 -0.6165889 -0.08446692
-0.94816554 -0.56031096 -0.18446691
-0.94816554 -0.56031096 -0.08446692
-0.95392996 -0.50178385 -0.18446691
-0.95392996 -0.50178385 -0.08446692
-0.94816554 -0.44325674 -0.18446691
-0.94816554 -0.44325674 -0.08446692
-0.9310938 -0.3869788 -0.18446691
-0.9310938 -0.3869788 -0.08446692
-0.90337086 -0.33511275 -0.18446691
-0.90337086 -0.33511275 -0.08446692
-0.866062 -0.2896518 -0.18446691
-0.866062 -0.2896518 -0.08446692
-0.82060105 -0.25234294 -0.18446691
-0.82060105 -0.25234294 -0.08446692
-0.768735 -0.22461998 -0.18446691
-0.768735 -0.22461998 -0.08446692
-0.71245706 -0.20754826 -0.18446691
-0.71245706 -0.20754826 -0.08446692
4 0 1 3 2
4 2 3 5 4
4 4 5 7 6
4 6 7 9 8
4 8 9 11 10
4 10 11 13 12
4 12 13 15 14
4 14 15 17 16
4 16 17 19 18
4 18 19 21 20
4 20 21 23 22
4 22 23 25 24
4 24 25 27 26
4 26 27 29 28
4 28 29 31 30
4 30 31 33 32
4 32 33 35 34
4 34 35 37 36
4 36 37 39 38
4 38 39 41 40
4 40 41 43 42
4 42 43 45 44
4 44 45 47 46
4 46 47 49 48
4 48 49 51 50
4 50 51 53 52
4 52 53 55 54
4 54 55 57 56
4 56 57 59 58
4 58 59 61 60
32 3 1 63 61 59 57 55 53 51 49 47 45 43 41 39 37 35 33 31 29 27 25 23 21 19 17 15 13 11 9 7 5
4 60 61 63 62
4 62 63 1 0
32 0 2 4 6 8 10 12 14 16 18 20 22 24 26 28 30 32 34 36 38 40 42 44 46 48 50 52 54 56 58 60 62
