ply
format ascii 1.0
comment Created in Blender version 5.0.1
element vertex 64
property float x
property float y
property float z
element face 124
property list uchar uint vertex_indices
end_header
-0.84184265 0.1338287 -0.034196388
-0.84184265 0.1338287 -0.013728163
-0.8298632 0.13264883 -0.034196388
-0.8298632 0.13264883 -0.013728163
-0.8183441 0.12915455 -0.034196388
-0.8183441 0.12915455 -0.013728163
-0.80772805 0.123480156 -0.034196388
-0.80772805 0.123480156 -0.013728163
-0.798423 0.11584369 -0.034196388
-0.798423 0.11584369 -0.013728163
-0.7907865 0.10653864 -0.034196388
-0.7907865 0.10653864 -0.013728163
-0.78511214 0.09592258 -0.034196388
-0.78511214 0.09592258 -0.013728163
-0.7816178 0.084403485 -0.034196388
-0.7816178 0.084403485 -0.013728163
-0.78043795 0.072424024 -0.034196388
-0.78043795 0.072424024 -0.013728163
-0.7816178 0.060444564 -0.034196388
-0.7816178 0.060444564 -0.013728163
-0.78511214 0.048925467 -0.034196388
-0.78511214 0.048925467 -0.013728163
-0.7907865 0.03830941 -0.034196388
-0.7907865 0.03830941 -0.013728163
-0.798423 0.029004358 -0.034196388
-0.798423 0.029004358 -0.013728163
-0.80772805 0.021367896 -0.034196388
-0.80772805 0.021367896 -0.013728163
-0.8183441 0.015693497 -0.034196388
-0.8183441 0.015693497 -0.013728163
-0.8298632 0.012199216 -0.034196388
-0.8298632 0.012199216 -0.013728163
-0.84184265 0.011019342 -0.034196388
-0.84184265 0.011019342 -0.013728163
-0.8538221 0.012199216 -0.034196388
-0.8538221 0.012199216 -0.013728163
-0.8653412 0.015693497 -0.034196388
-0.8653412 0.015693497 -0.013728163
-0.87595725 0.021367896 -0.034196388
-0.87595725 0.021367896 -0.013728163
-0.8852623 0.029004358 -0.034196388
-0.8852623 0.029004358 -0.013728163
-0.8928988 0.03830941 -0.034196388
-0.8928988 0.03830941 -0.013728163
-0.89857316 0.048925467 -0.034196388
-0.89857316 0.048925467 -0.013728163
-0.9020675 0.060444564 -0.034196388
-0.9020675 0.060444564 -0.013728163
-0.90324736 0.072424024 -0.034196388
-0.90324736 0.072424024 -0.013728163
-0.9020675 0.084403485 -0.034196388
-0.9020675 0.084403485 -0.013728163
-0.89857316 0.09592258 -0.034196388
-0.89857316 0.09592258 -0.013728163
-0.8928988 0.10653864 -0.034196388
-0.8928988 0.10653864 -0.013728163
-0.8852623 0.11584369 -0.034196388
-0.8852623 0.11584369 -0.013728163
-0.87595725 0.123480156 -0.034196388
-0.87595725 0.123480156 -0.013728163
-0.8653412 0.12915455 -0.034196388
-0.8653412 0.12915455 -0.013728163
-0.8538221 0.13264883 -0.034196388
-0.8538221 0.13264883 -0.013728163
3 1 2 0
3 3 4 2
3 5 6 4
3 7 8 6
3 9 10 8
3 11 12 10
3 13 14 12
3 15 16 14
3 17 18 16
3 19 20 18
3 21 22 20
3 23 24 22
3 25 26 24
3 27 28 26
3 29 30 28
3 31 32 30
3 33 34 32
3 35 36 34
3 37 38 36
3 39 40 38
3 41 42 40
3 43 44 42
3 45 46 44
3 47 48 46
3 49 50 48
3 51 52 50
3 53 54 52
3 55 56 54
3 57 58 56
3 59 60 58
3 37 21 5
3 61 62 60
3 63 0 62
3 30 46 62
3 1 3 2
3 3 5 4
3 5 7 6
3 7 9 8
3 9 11 10
3 11 13 12
3 13 15 14
3 15 17 16
3 17 19 18
3 19 21 20
3 21 23 22
3 23 25 24
3 25 27 26
3 27 29 28
3 29 31 30
3 31 33 32
3 33 35 34
3 35 37 36
3 37 39 38
3 39 41 40
3 41 43 42
3 43 45 44
3 45 47 46
3 47 49 48
3 49 51 50
3 51 53 52
3 53 55 54
3 55 57 56
3 57 59 58
3 59 61 60
3 5 3 1
3 1 63 5
3 63 61 5
3 61 59 57
3 57 55 53
3 53 51 49
3 49 47 53
3 47 45 53
3 45 43 41
3 41 39 37
3 37 35 29
3 35 33 29
3 33 31 29
3 29 27 25
3 25 23 21
3 21 19 13
3 19 17 13
3 17 15 13
3 13 11 9
3 9 7 5
3 61 57 5
3 57 53 5
3 45 41 53
3 41 37 53
3 29 25 37
3 25 21 37
3 13 9 21
3 9 5 21
3 5 53 37
3 61 63 62
3 63 1 0
3 62 0 2
3 2 4 6
3 6 8 10
3 10 12 14
3 14 16 18
3 18 20 22
3 22 24 26
3 26 28 30
3 30 32 34
3 34 36 38
3 38 40 42
3 42 44 46
3 46 48 50
3 50 52 54
3 54 56 58
3 58 60 62
3 62 2 14
3 2 6 14
3 6 10 14
3 14 18 30
3 18 22 30
3 22 26 30
3 30 34 46
3 34 38 46
3 38 42 46
3 46 50 62
3 50 54 62
3 54 58 62
3 62 14 30
