ply
format ascii 1.0
comment Created in Blender version 4.5.2 LTS
element vertex 306
property float x
property float y
property float z
element face 608
property list uchar uint vertex_indices
end_header
0.36133024 0.061560508 0.39137614
0.36171457 0.05151249 0.39074495
0.3613061 0.062191207 0.38132077
0.36169043 0.05214319 0.3806896
0.35126245 0.061175417 0.39137614
0.35164678 0.0511274 0.39074495
0.3512383 0.061806116 0.38132077
0.35162264 0.0517581 0.3806896
0.36365107 0.061294094 0.3970307
0.3640354 0.05124607 0.39639953
0.36398414 0.052586112 0.37503502
0.3635998 0.06263413 0.3756662
0.34898734 0.06256948 0.3677975
0.34937167 0.052521456 0.36716634
0.3494607 0.050194323 0.40426823
0.34907636 0.060242344 0.4048994
0.3562106 0.06360946 0.38142195
0.35671815 0.050339848 0.3805884
0.35623473 0.06297876 0.39147732
0.3567423 0.04970915 0.39064378
0.35618806 0.06419899 0.37202293
0.35669562 0.05092938 0.3711894
0.35625726 0.062389225 0.40087634
0.35676485 0.049119614 0.40004283
0.36313635 0.056598235 0.39106056
0.36311224 0.057228934 0.38100517
0.34981653 0.056720376 0.38100517
0.34984064 0.056089673 0.39106056
0.3654551 0.056387503 0.3958273
0.36540806 0.05761617 0.37623844
0.34756556 0.057483733 0.36748192
0.34765455 0.0551566 0.4045838
0.36928016 0.05646424 0.3969349
0.3673662 0.04899487 0.3974631
0.36922786 0.05783185 0.37513083
0.3667489 0.065133184 0.37460262
0.35665846 0.06736048 0.37058222
0.35739833 0.048017718 0.3693672
0.34742764 0.05027615 0.36492407
0.34495106 0.057515502 0.36538407
0.34686738 0.064922884 0.3658441
0.34505013 0.054925207 0.40668166
0.34696648 0.062332585 0.40714166
0.35673553 0.06534606 0.40269852
0.35747537 0.046003297 0.4014835
0.36730915 0.050486453 0.3736826
0.36680597 0.06364161 0.39838314
0.3475267 0.047685854 0.40622163
0.36706284 0.051110573 0.40267637
0.3683369 0.05613674 0.40157425
0.36996555 0.056389175 0.3985473
0.36805195 0.048910636 0.39922166
0.3699055 0.05795905 0.37351844
0.36742622 0.06526956 0.37284407
0.3573343 0.06753552 0.36820725
0.35807416 0.048192747 0.36699224
0.34810182 0.05049377 0.36187014
0.34562525 0.057733122 0.36233014
0.3475416 0.0651405 0.36279017
0.34573898 0.054759722 0.4097356
0.34765533 0.062167104 0.4101956
0.35742274 0.065223165 0.4050735
0.35816258 0.045880396 0.40385848
0.36798644 0.05062282 0.37192404
0.3674917 0.06355738 0.4001417
0.34821558 0.04752037 0.40927556
0.36826232 0.058086336 0.37049147
0.36660802 0.06300049 0.36938936
0.35789868 0.06451488 0.36502963
0.35839188 0.05162088 0.36421973
0.35065478 0.053154465 0.36014643
0.34900388 0.05798026 0.36045307
0.35028133 0.06291807 0.36075974
0.34912664 0.054771394 0.41161266
0.35040405 0.059709195 0.4119193
0.3580014 0.06182932 0.40784603
0.35849458 0.048935317 0.4070361
0.3669815 0.053236894 0.36877605
0.36668938 0.06087417 0.40328968
0.3507775 0.049945597 0.41130602
0.37000605 0.049304113 0.41074333
0.37111527 0.055773325 0.40905163
0.37106147 0.056041963 0.40474215
0.3696272 0.04958486 0.4060432
0.37097168 0.05838896 0.36732358
0.3690484 0.064717636 0.36602253
0.35905343 0.06669097 0.3607824
0.35968852 0.050086774 0.35973942
0.35080835 0.05208109 0.3548441
0.3488891 0.058303393 0.35523897
0.35032743 0.06465412 0.35563388
0.34903687 0.05444044 0.41682675
0.3504752 0.06079117 0.41722164
0.35917708 0.063457996 0.4123263
0.3598122 0.0468538 0.41128334
0.3695293 0.052144606 0.36523277
0.3691463 0.06215789 0.40683296
0.3509561 0.048218135 0.41643187
0.36999357 0.048347875 0.42595887
0.3706686 0.05487992 0.42300257
0.37100482 0.05866093 0.36301407
0.36940467 0.0650265 0.3613224
0.36131904 0.06715052 0.3548461
0.36195412 0.05054632 0.3538031
0.3547684 0.052678104 0.34775105
0.3531733 0.05891281 0.34814593
0.35428748 0.06525114 0.3485408
0.35335508 0.054160062 0.4239198
0.35446927 0.060498398 0.42431468
0.36147118 0.063172854 0.41826263
0.36210626 0.04656866 0.41721964
0.3698856 0.05245347 0.36053264
0.36952513 0.06187715 0.4115331
0.3549502 0.04792536 0.42352492
0.37834886 0.04837136 0.45445117
0.3793611 0.05332699 0.45301813
0.3704912 0.059517603 0.34906313
0.36931917 0.06597899 0.34610686
0.36586025 0.068323314 0.33894068
0.36649537 0.051719107 0.3378977
0.36390138 0.053970736 0.3327338
0.36273742 0.060221937 0.33312866
0.3634205 0.06654378 0.33352357
0.36299127 0.053585343 0.43893707
0.3636743 0.05990719 0.43933195
0.36608872 0.06235039 0.43416804
0.36672384 0.045746185 0.43312508
0.3698001 0.05340595 0.3453171
0.36951265 0.06092092 0.42674863
0.36415523 0.047334146 0.4385422
0.37903967 0.061729997 0.3190475
0.37765184 0.06659382 0.31761453
0.37569934 0.06814657 0.31634355
0.37618437 0.055466168 0.31554705
0.37479588 0.056994934 0.3150013
0.3734122 0.061749965 0.31530285
0.3744286 0.0665968 0.31560445
0.37375158 0.052877203 0.45676288
0.374768 0.057724036 0.45706445
0.37603566 0.059354402 0.4565187
0.3765207 0.046674 0.4557222
0.37801912 0.05699196 0.3170114
0.37798157 0.05797322 0.4550543
0.37513524 0.048122175 0.4564613
0.42177844 0.048353415 0.52981985
0.4223453 0.050341785 0.52629673
0.40893602 0.051081438 0.5067763
0.40849406 0.048444718 0.50975096
0.40835667 0.06622816 0.26528934
0.40771458 0.068823405 0.26231474
0.40682516 0.06972124 0.2598982
0.40706962 0.06332978 0.25949675
0.4064373 0.064155325 0.25838748
0.40580273 0.066554464 0.25853944
0.40386403 0.069324285 0.25871783
0.40641448 0.05056099 0.5135263
0.40686393 0.05300159 0.5136783
0.40743136 0.053873025 0.512569
0.40767583 0.047481574 0.5121676
0.40789968 0.06398367 0.26201072
0.40830892 0.05328446 0.51005495
0.40704906 0.04816185 0.5133743
0.4273276 0.048096422 0.53937244
0.4278595 0.049994595 0.5356018
0.42167228 0.06793748 0.24576545
0.42095518 0.06987673 0.24224238
0.41991577 0.07057427 0.23941348
0.42009115 0.0659891 0.23912546
0.41935617 0.06660289 0.23781522
0.41864777 0.068314336 0.23792419
0.41922337 0.07007488 0.23803331
0.41935843 0.049734984 0.53413814
0.419934 0.05149553 0.53424716
0.42061996 0.05216368 0.5329369
0.42079535 0.047578506 0.53264886
0.42108798 0.066404745 0.24202429
0.42164564 0.0518254 0.53003794
0.42006683 0.048023544 0.53402907
0.4313664 0.04456099 0.54259324
0.4330482 0.04998251 0.5389537
0.4271418 0.06875737 0.23646358
0.4264665 0.07060936 0.23269306
0.42549187 0.071196795 0.23112364
0.42565677 0.06688589 0.23085286
0.4238225 0.06737536 0.23031943
0.42315647 0.068984434 0.23042187
0.42369762 0.07063967 0.23052447
0.42390314 0.04946375 0.5416437
0.4244443 0.05111899 0.5417462
0.42623582 0.051747154 0.5412127
0.42640072 0.047436252 0.54094195
0.42659137 0.06734505 0.23248802
0.42720276 0.051360726 0.5395775
0.42456916 0.047854684 0.54154116
0.43231443 0.06916577 0.23311158
0.43022344 0.074442975 0.22947216
0.427182 0.07616063 0.22645265
0.42769733 0.06268771 0.22560635
0.42554364 0.06433532 0.22424248
0.42346212 0.06936416 0.22456282
0.4251534 0.07453729 0.22488332
0.4242369 0.049108487 0.54750264
0.42592818 0.05428163 0.5478231
0.42794973 0.056088947 0.54645914
0.42846507 0.04261602 0.5456128
0.43061367 0.06424101 0.22883132
0.43097618 0.054762967 0.5432341
0.4263184 0.044079654 0.5471822
0.43692756 0.04979127 0.5443606
0.43524614 0.044360965 0.5481401
0.43616787 0.069652796 0.22770467
0.43407655 0.07493879 0.22392525
0.43103483 0.07666337 0.22079535
0.43155017 0.06319044 0.21994905
0.42939633 0.0648413 0.21853332
0.42731485 0.069870144 0.21885368
0.42900613 0.07504328 0.21917416
0.42811704 0.048898287 0.55321175
0.4298083 0.05407143 0.5535322
0.43182972 0.055882003 0.5521164
0.43234506 0.04240907 0.5512701
0.43446678 0.064736806 0.22328441
0.4348559 0.05456295 0.5487809
0.43019852 0.04386945 0.5528913
0.4385635 0.0493522 0.5523467
0.4374847 0.046517707 0.5528304
0.43776548 0.07021555 0.2197185
0.4364733 0.07295935 0.2192349
0.43454516 0.07447781 0.21766399
0.43486902 0.066010855 0.21713214
0.43351406 0.06708542 0.21565099
0.43220595 0.07024576 0.21585229
0.43326882 0.073496774 0.21605371
0.4330225 0.048897393 0.55621314
0.43408537 0.052148413 0.5564145
0.4353543 0.053323347 0.5549333
0.43567815 0.044856396 0.5544014
0.43668354 0.06746339 0.21888967
0.4372745 0.05201367 0.5531756
0.4343306 0.04573706 0.55601174
0.44769284 0.048775714 0.5670835
0.44599175 0.046997223 0.56769323
0.4468241 0.07148773 0.20498163
0.44499213 0.073131084 0.20437191
0.44217068 0.07403894 0.20261681
0.44236705 0.0689054 0.20229435
0.44038418 0.06955932 0.20065081
0.4385433 0.07143537 0.20077284
0.4402355 0.07344654 0.20089498
0.4394322 0.048195362 0.5712924
0.4411244 0.050206542 0.5714145
0.44305155 0.051010028 0.56977093
0.4432479 0.045876488 0.5694485
0.4451196 0.069798864 0.20416261
0.4458643 0.050329443 0.56790257
0.4412731 0.04631932 0.57117033
0.45391387 0.047596008 0.5896524
0.45006084 0.0456657 0.5870687
0.45293686 0.073139206 0.18241264
0.44894764 0.07476954 0.18499652
0.44461364 0.07550406 0.18740445
0.44484165 0.06954276 0.18702999
0.44128263 0.07009213 0.18769942
0.438004 0.07222704 0.18784113
0.44110996 0.07460615 0.18798296
0.43895495 0.04736481 0.5842241
0.44206095 0.049743924 0.5843659
0.4455676 0.05056356 0.5850353
0.44579563 0.04460226 0.5846608
0.44909564 0.070900016 0.18475345
0.44991285 0.04953523 0.58731174
0.4422336 0.045229904 0.58408237
0.4315799 0.04344252 0.60877764
0.43260726 0.045442425 0.610963
0.44565812 0.04650777 0.6019499
0.44463092 0.044502705 0.59984684
0.4446221 0.073593624 0.17011519
0.44344473 0.07551436 0.17221832
0.44148403 0.076500036 0.1733867
0.44172996 0.07007094 0.17298284
0.43879628 0.070612535 0.17464942
0.4367293 0.07290512 0.1762699
0.4386081 0.0755328 0.17495847
0.43773583 0.046591334 0.5957954
0.43962163 0.049035113 0.5974159
0.44250533 0.049799226 0.59908247
0.44275126 0.043370128 0.59867865
0.44360435 0.07134119 0.17195618
0.4444713 0.048675884 0.600109
0.43980983 0.044114843 0.5971068
0.431528 0.07365891 0.1611024
0.43035084 0.07557449 0.16328785
0.42839023 0.076557286 0.16450201
0.42863616 0.07012819 0.16409816
0.42570266 0.070665546 0.16583234
0.42363584 0.0729543 0.16751403
0.42551446 0.07558581 0.16614139
0.42468435 0.045542102 0.60455155
0.4265703 0.047982045 0.60623324
0.42945418 0.048741914 0.60796744
0.4297001 0.042312816 0.6075636
0.43051046 0.071401305 0.1630257
0.43142027 0.0476157 0.6090398
0.4267585 0.043061774 0.60592425
0.41217557 0.04471817 0.6100515
0.41110066 0.0728203 0.16201413
3 24 3 25
3 24 8 28
3 7 27 26
3 25 10 29
3 16 4 18
3 17 1 19
3 10 37 45
3 15 43 22
3 4 22 18
3 26 12 30
3 16 11 20
3 19 9 23
3 27 14 31
3 7 21 17
3 17 10 3
3 5 23 14
3 6 20 12
3 18 8 0
3 12 36 40
3 15 41 42
3 17 5 7
3 16 0 2
3 12 39 30
3 13 37 21
3 27 15 4
3 26 13 7
3 11 36 20
3 14 41 31
3 25 11 2
3 6 27 4
3 24 9 1
3 24 2 0
3 42 59 60
3 40 57 39
3 47 62 65
3 38 55 37
3 43 64 46
3 47 59 41
3 36 53 54
3 37 63 45
3 8 32 28
3 9 44 23
3 8 43 46
3 10 34 29
3 9 32 33
3 14 44 47
3 13 39 38
3 11 34 35
3 55 77 63
3 57 70 56
3 52 67 53
3 58 68 72
3 52 77 66
3 50 48 51
3 62 48 76
3 50 78 49
3 42 61 43
3 46 50 32
3 44 51 62
3 33 50 51
3 45 52 34
3 40 54 58
3 35 52 53
3 38 57 56
3 67 84 85
3 72 86 90
3 77 84 66
3 48 82 83
3 76 83 94
3 78 82 49
3 74 93 75
3 74 91 92
3 54 67 68
3 59 79 73
3 61 78 64
3 56 69 55
3 65 76 79
3 57 72 71
3 59 74 60
3 60 75 61
3 92 109 93
3 92 107 108
3 90 105 89
3 97 110 113
3 88 103 87
3 93 112 96
3 97 107 91
3 86 101 102
3 70 89 88
3 69 95 77
3 68 85 86
3 79 91 73
3 75 96 78
3 70 87 69
3 79 94 97
3 72 89 71
3 102 117 118
3 103 127 111
3 104 121 120
3 101 116 117
3 106 118 122
3 111 116 100
3 80 99 98
3 110 98 126
3 96 81 82
3 94 80 110
3 83 81 80
3 95 100 84
3 90 102 106
3 85 100 101
3 88 105 104
3 87 111 95
3 117 130 131
3 122 132 136
3 127 130 116
3 98 115 114
3 126 114 140
3 128 115 99
3 124 139 125
3 124 137 138
3 113 123 107
3 109 128 112
3 104 119 103
3 113 126 129
3 106 121 105
3 108 123 124
3 108 125 109
3 112 99 81
3 138 157 139
3 138 155 156
3 135 154 153
3 143 158 161
3 134 151 133
3 139 160 142
3 143 155 137
3 132 149 150
3 120 135 134
3 119 141 127
3 118 131 132
3 129 137 123
3 125 142 128
3 120 133 119
3 129 140 143
3 122 135 121
3 150 165 166
3 151 175 159
3 152 169 168
3 149 164 165
3 154 166 170
3 159 164 148
3 147 145 144
3 158 144 174
3 142 146 115
3 140 147 158
3 114 146 147
3 141 148 130
3 132 154 136
3 131 148 149
3 134 153 152
3 133 159 141
3 165 180 181
3 170 182 186
3 175 180 164
3 144 163 162
3 174 162 190
3 176 163 145
3 172 189 173
3 172 187 188
3 161 171 155
3 157 176 160
3 152 167 151
3 161 174 177
3 153 170 169
3 156 171 172
3 156 173 157
3 160 145 146
3 192 179 163
3 189 202 203
3 188 201 202
3 186 199 185
3 190 207 193
3 183 198 197
3 189 206 192
3 193 201 187
3 168 185 184
3 167 191 175
3 166 181 182
3 177 187 171
3 173 192 176
3 168 183 167
3 177 190 193
3 170 185 169
3 207 217 201
3 196 211 212
3 197 221 205
3 198 215 214
3 195 210 211
3 200 212 216
3 205 210 194
3 178 208 209
3 190 178 204
3 162 179 178
3 191 194 180
3 182 200 186
3 181 194 195
3 184 199 198
3 183 205 191
3 182 195 196
3 211 226 227
3 216 228 232
3 221 226 210
3 209 224 225
3 209 236 220
3 222 224 208
3 218 235 219
3 218 233 234
3 203 222 206
3 198 213 197
3 207 220 223
3 200 215 199
3 202 217 218
3 202 219 203
3 206 208 179
3 204 209 220
3 236 241 252
3 224 254 240
3 234 251 235
3 234 249 250
3 232 247 231
3 239 252 255
3 230 245 229
3 235 254 238
3 214 231 230
3 221 229 237
3 211 228 212
3 223 233 217
3 222 235 238
3 214 229 213
3 223 236 239
3 216 231 215
3 255 268 271
3 246 261 245
3 254 267 270
3 255 265 249
3 243 260 244
3 253 261 269
3 246 263 262
3 242 259 243
3 224 241 225
3 226 253 242
3 232 244 248
3 226 243 227
3 230 247 246
3 229 253 237
3 228 243 244
3 239 249 233
3 262 281 280
3 258 277 259
3 260 282 264
3 258 287 276
3 256 275 257
3 257 286 268
3 256 288 274
3 267 284 285
3 248 263 247
3 250 265 266
3 250 267 251
3 240 270 256
3 241 268 252
3 240 257 241
3 242 269 258
3 248 260 264
3 276 301 290
3 274 272 275
3 286 272 300
3 274 302 273
3 284 299 285
3 283 298 284
3 281 296 295
3 289 300 303
3 269 279 287
3 259 278 260
3 271 283 265
3 270 285 288
3 261 280 279
3 268 289 271
3 264 281 263
3 266 283 284
3 293 295 305
3 300 273 304
3 297 300 304
3 290 293 305
3 290 292 291
3 297 299 298
3 299 273 302
3 292 295 296
3 282 292 296
3 276 291 277
3 281 294 280
3 279 301 287
3 278 291 292
3 283 303 297
3 285 302 288
3 280 293 279
3 24 1 3
3 24 0 8
3 7 5 27
3 25 3 10
3 16 6 4
3 17 3 1
3 10 21 37
3 15 42 43
3 4 15 22
3 26 6 12
3 16 2 11
3 19 1 9
3 27 5 14
3 7 13 21
3 17 21 10
3 5 19 23
3 6 16 20
3 18 22 8
3 12 20 36
3 15 31 41
3 17 19 5
3 16 18 0
3 12 40 39
3 13 38 37
3 27 31 15
3 26 30 13
3 11 35 36
3 14 47 41
3 25 29 11
3 6 26 27
3 24 28 9
3 24 25 2
3 42 41 59
3 40 58 57
3 47 44 62
3 38 56 55
3 43 61 64
3 47 65 59
3 36 35 53
3 37 55 63
3 8 46 32
3 9 33 44
3 8 22 43
3 10 45 34
3 9 28 32
3 14 23 44
3 13 30 39
3 11 29 34
3 55 69 77
3 57 71 70
3 52 66 67
3 58 54 68
3 52 63 77
3 50 49 48
3 62 51 48
3 50 64 78
3 42 60 61
3 46 64 50
3 44 33 51
3 33 32 50
3 45 63 52
3 40 36 54
3 35 34 52
3 38 39 57
3 67 66 84
3 72 68 86
3 77 95 84
3 48 49 82
3 76 48 83
3 78 96 82
3 74 92 93
3 74 73 91
3 54 53 67
3 59 65 79
3 61 75 78
3 56 70 69
3 65 62 76
3 57 58 72
3 59 73 74
3 60 74 75
3 92 108 109
3 92 91 107
3 90 106 105
3 97 94 110
3 88 104 103
3 93 109 112
3 97 113 107
3 86 85 101
3 70 71 89
3 69 87 95
3 68 67 85
3 79 97 91
3 75 93 96
3 70 88 87
3 79 76 94
3 72 90 89
3 102 101 117
3 103 119 127
3 104 105 121
3 101 100 116
3 106 102 118
3 111 127 116
3 80 81 99
3 110 80 98
3 96 112 81
3 94 83 80
3 83 82 81
3 95 111 100
3 90 86 102
3 85 84 100
3 88 89 105
3 87 103 111
3 117 116 130
3 122 118 132
3 127 141 130
3 98 99 115
3 126 98 114
3 128 142 115
3 124 138 139
3 124 123 137
3 113 129 123
3 109 125 128
3 104 120 119
3 113 110 126
3 106 122 121
3 108 107 123
3 108 124 125
3 112 128 99
3 138 156 157
3 138 137 155
3 135 136 154
3 143 140 158
3 134 152 151
3 139 157 160
3 143 161 155
3 132 131 149
3 120 121 135
3 119 133 141
3 118 117 131
3 129 143 137
3 125 139 142
3 120 134 133
3 129 126 140
3 122 136 135
3 150 149 165
3 151 167 175
3 152 153 169
3 149 148 164
3 154 150 166
3 159 175 164
3 147 146 145
3 158 147 144
3 142 160 146
3 140 114 147
3 114 115 146
3 141 159 148
3 132 150 154
3 131 130 148
3 134 135 153
3 133 151 159
3 165 164 180
3 170 166 182
3 175 191 180
3 144 145 163
3 174 144 162
3 176 192 163
3 172 188 189
3 172 171 187
3 161 177 171
3 157 173 176
3 152 168 167
3 161 158 174
3 153 154 170
3 156 155 171
3 156 172 173
3 160 176 145
3 192 206 179
3 189 188 202
3 188 187 201
3 186 200 199
3 190 204 207
3 183 184 198
3 189 203 206
3 193 207 201
3 168 169 185
3 167 183 191
3 166 165 181
3 177 193 187
3 173 189 192
3 168 184 183
3 177 174 190
3 170 186 185
3 207 223 217
3 196 195 211
3 197 213 221
3 198 199 215
3 195 194 210
3 200 196 212
3 205 221 210
3 178 179 208
3 190 162 178
3 162 163 179
3 191 205 194
3 182 196 200
3 181 180 194
3 184 185 199
3 183 197 205
3 182 181 195
3 211 210 226
3 216 212 228
3 221 237 226
3 209 208 224
3 209 225 236
3 222 238 224
3 218 234 235
3 218 217 233
3 203 219 222
3 198 214 213
3 207 204 220
3 200 216 215
3 202 201 217
3 202 218 219
3 206 222 208
3 204 178 209
3 236 225 241
3 224 238 254
3 234 250 251
3 234 233 249
3 232 248 247
3 239 236 252
3 230 246 245
3 235 251 254
3 214 215 231
3 221 213 229
3 211 227 228
3 223 239 233
3 222 219 235
3 214 230 229
3 223 220 236
3 216 232 231
3 255 252 268
3 246 262 261
3 254 251 267
3 255 271 265
3 243 259 260
3 253 245 261
3 246 247 263
3 242 258 259
3 224 240 241
3 226 237 253
3 232 228 244
3 226 242 243
3 230 231 247
3 229 245 253
3 228 227 243
3 239 255 249
3 262 263 281
3 258 276 277
3 260 278 282
3 258 269 287
3 256 274 275
3 257 275 286
3 256 270 288
3 267 266 284
3 248 264 263
3 250 249 265
3 250 266 267
3 240 254 270
3 241 257 268
3 240 256 257
3 242 253 269
3 248 244 260
3 276 287 301
3 274 273 272
3 286 275 272
3 274 288 302
3 284 298 299
3 283 297 298
3 281 282 296
3 289 286 300
3 269 261 279
3 259 277 278
3 271 289 283
3 270 267 285
3 261 262 280
3 268 286 289
3 264 282 281
3 266 265 283
3 293 294 295
3 300 272 273
3 297 303 300
3 290 301 293
3 290 305 292
3 297 304 299
3 299 304 273
3 292 305 295
3 282 278 292
3 276 290 291
3 281 295 294
3 279 293 301
3 278 277 291
3 283 289 303
3 285 299 302
3 280 294 293
